<?xml version="1.0" encoding="UTF-8"?>
<!-- Generated by scripts/generate-icons.sh from zuko-logo.png. -->
<svg xmlns="http://www.w3.org/2000/svg" width="64" height="64" viewBox="0 0 64 64">
  <defs>
    <clipPath id="corners"><rect width="64" height="64" rx="7"/></clipPath>
  </defs>
  <g clip-path="url(#corners)" shape-rendering="crispEdges">
    <path fill="#EEEED5" d="M33 10h2v1h-2zM30 9h4v1h-4zM55 17h2v6h-2zM55 23h1v1h-1zM55 24h2v1h-2zM55 25h1v1h-1zM55 26h2v1h-2zM55 27h1v3h-1zM8 16h2v1h-2zM9 14h3v1h-3zM30 10h1v1h-1zM33 13h2v1h-2zM33 49h2v1h-2zM30 14h4v1h-4zM30 49h1v1h-1zM33 52h2v1h-2zM14 11h16v1h-16zM34 11h16v1h-16zM13 12h17v1h-17zM34 12h17v1h-17zM11 13h3v1h-3zM29 13h3v1h-3zM50 13h3v1h-3zM9 48h3v1h-3zM52 14h3v1h-3zM9 15h2v1h-2zM53 15h2v1h-2zM8 46h2v1h-2zM54 16h2v1h-2zM7 17h2v29h-2zM55 30h2v3h-2zM55 33h1v8h-1zM8 47h3v1h-3zM30 48h5v1h-5zM10 49h3v1h-3zM12 50h18v1h-18zM34 50h2v2h-2zM29 51h1v1h-1zM30 52h2v1h-2zM31 53h3v1h-3z"/>
    <path fill="#D5CEB4" d="M53 13h1v1h-1zM56 23h1v1h-1zM56 25h1v1h-1zM56 27h1v3h-1zM10 13h1v1h-1zM31 8h3v1h-3zM31 10h1v1h-1zM30 11h1v2h-1zM32 13h1v1h-1zM31 47h3v1h-3zM34 9h1v1h-1zM29 10h1v1h-1zM31 49h1v1h-1zM35 10h1v1h-1zM13 11h1v1h-1zM30 50h1v2h-1zM50 11h1v1h-1zM11 12h2v1h-2zM51 12h2v1h-2zM10 46h1v1h-1zM32 52h1v1h-1zM53 16h1v1h-1zM8 15h1v1h-1zM54 17h1v24h-1zM56 33h1v8h-1zM7 46h1v1h-1zM12 48h1v1h-1zM13 49h17v1h-17zM33 50h1v2h-1z"/>
    <path fill="#323639" d="M48 19h6v2h-6zM10 31h6v1h-6zM10 30h5v1h-5zM10 29h4v1h-4zM10 26h3v3h-3zM10 19h18v4h-18zM48 26h6v1h-6zM0 15h8v1h-8zM34 8h30v1h-30zM0 14h9v1h-9zM13 14h17v1h-17zM35 9h29v1h-29zM36 10h28v1h-28zM0 12h11v1h-11zM31 11h2v2h-2zM0 11h13v1h-13zM0 10h29v1h-29zM0 9h30v1h-30zM34 47h30v1h-30zM0 8h31v1h-31zM0 0h64v8h-64zM0 55h64v9h-64zM0 54h31v1h-31zM34 53h30v2h-30zM0 53h30v1h-30zM35 48h29v1h-29zM0 52h29v1h-29zM36 49h28v4h-28zM0 51h13v1h-13zM31 50h2v2h-2zM51 11h13v1h-13zM0 50h11v1h-11zM53 12h11v1h-11zM0 13h10v1h-10zM54 13h10v1h-10zM0 48h9v2h-9zM13 48h17v1h-17zM34 14h17v1h-17zM55 14h9v1h-9zM0 47h8v1h-8zM12 15h18v1h-18zM34 15h18v1h-18zM56 15h8v1h-8zM0 16h7v31h-7zM11 16h42v1h-42zM57 16h7v25h-7zM10 17h44v2h-44zM10 40h18v5h-18zM48 40h6v1h-6zM50 21h4v4h-4zM10 23h19v1h-19zM10 24h33v1h-33zM10 25h32v1h-32zM49 25h5v1h-5zM10 36h3v4h-3zM16 26h25v1h-25zM17 27h23v1h-23zM47 27h7v1h-7zM18 28h21v1h-21zM46 28h8v1h-8zM10 35h4v1h-4zM19 29h19v1h-19zM45 29h9v1h-9zM10 34h5v1h-5zM20 30h17v1h-17zM44 30h10v1h-10zM10 33h6v1h-6zM21 31h15v1h-15zM43 31h11v1h-11zM10 32h7v1h-7zM21 32h14v1h-14zM42 32h12v1h-12zM21 33h13v1h-13zM41 33h13v1h-13zM20 34h13v1h-13zM40 34h14v1h-14zM19 35h13v1h-13zM39 35h15v1h-15zM18 36h1v1h-1zM25 36h6v1h-6zM38 36h16v1h-16zM17 37h2v1h-2zM26 37h4v1h-4zM37 37h17v1h-17zM16 38h3v2h-3zM26 38h3v1h-3zM36 38h18v1h-18zM26 39h2v1h-2zM35 39h19v1h-19zM50 41h14v4h-14zM10 45h54v1h-54zM11 46h53v1h-53zM11 47h20v1h-20z"/>
    <path fill="#520808" d="M16 27h1v1h-1zM16 31h1v1h-1zM15 30h1v1h-1zM19 30h1v1h-1zM14 29h1v1h-1zM18 29h1v1h-1zM13 26h1v3h-1zM17 28h1v1h-1zM16 33h1v1h-1zM15 34h1v1h-1zM28 22h1v1h-1zM49 21h1v3h-1zM28 19h20v1h-20zM49 41h1v2h-1zM28 39h1v1h-1zM29 23h16v1h-16zM48 24h2v1h-2zM42 25h1v1h-1zM47 25h2v1h-2zM13 36h1v3h-1zM46 26h2v1h-2zM16 37h1v1h-1zM40 27h1v1h-1zM45 27h2v1h-2zM17 36h1v1h-1zM39 28h1v1h-1zM44 28h2v1h-2zM14 35h1v1h-1zM18 35h1v1h-1zM38 29h1v1h-1zM43 29h2v1h-2zM15 38h1v1h-1zM19 34h1v1h-1zM37 30h1v1h-1zM42 30h2v1h-2zM20 31h1v3h-1zM36 31h1v1h-1zM41 31h2v1h-2zM35 32h1v1h-1zM40 32h2v1h-2zM39 33h2v1h-2zM38 34h2v1h-2zM32 35h1v1h-1zM37 35h2v1h-2zM19 36h6v1h-6zM31 36h1v1h-1zM36 36h2v1h-2zM25 37h1v2h-1zM30 37h1v1h-1zM35 37h2v1h-2zM29 38h1v1h-1zM34 38h2v1h-2zM13 39h3v1h-3zM19 39h7v1h-7zM33 39h2v1h-2zM28 43h22v2h-22z"/>
    <path fill="#C5404A" d="M16 30h3v1h-3zM15 29h3v1h-3zM14 28h3v1h-3zM14 26h2v2h-2zM28 20h20v1h-20zM28 21h21v1h-21zM28 40h20v1h-20zM28 41h21v2h-21zM29 22h20v1h-20zM45 23h4v1h-4zM43 24h5v1h-5zM43 25h4v1h-4zM14 37h2v1h-2zM41 26h5v1h-5zM41 27h4v1h-4zM14 36h3v1h-3zM40 28h4v1h-4zM15 35h3v1h-3zM39 29h4v1h-4zM16 34h3v1h-3zM38 30h4v1h-4zM17 31h3v3h-3zM37 31h4v1h-4zM36 32h4v1h-4zM34 33h5v1h-5zM33 34h5v1h-5zM33 35h4v1h-4zM32 36h4v1h-4zM19 37h6v2h-6zM31 37h4v1h-4zM14 38h1v1h-1zM30 38h4v1h-4zM29 39h4v1h-4z"/>
    <path fill="#B49D7B" d="M9 17h1v29h-1zM32 10h1v1h-1zM11 15h1v1h-1zM35 49h1v1h-1zM32 49h1v1h-1zM33 11h1v2h-1zM14 13h15v1h-15zM35 13h15v1h-15zM12 14h1v1h-1zM51 14h1v1h-1zM11 50h1v1h-1zM30 15h4v1h-4zM52 15h1v1h-1zM55 15h1v1h-1zM7 16h1v1h-1zM10 16h1v1h-1zM56 16h1v1h-1zM9 49h1v1h-1zM35 52h1v1h-1zM13 51h16v1h-16zM29 52h1v1h-1zM30 53h1v1h-1zM31 54h3v1h-3z"/>
  </g>
</svg>
